# xmcd CD database file
#
# Track frame offsets:
#	150
#	53967
#	107441
#	161854
#	239090
#	285246
#
# Disc length: 4461 seconds
#
# Revision: 1
# Processed by: cddbd v1.5.2PL0 Copyright (c) Steve Scherf et al.
# Submitted via: CDex 1.51
#
DISCID=4e116b06
DTITLE=Double Standards - Live!
DYEAR=2007
DGENRE=Jazz
TTITLE0=Upper Manhattan medical group
TTITLE1=Speak low
TTITLE2=My man's gone now
TTITLE3=I love you
TTITLE4=Mahjong
TTITLE5=Tea for two
EXTD=YEAR: 2007
EXTT0=
EXTT1=
EXTT2=
EXTT3=
EXTT4=
EXTT5=
PLAYORDER=
